<?xml version="1.0" encoding="utf-8"?>
<!-- Generator: Adobe Illustrator 16.0.0, SVG Export Plug-In . SVG Version: 6.00 Build 0)  -->
<!DOCTYPE svg PUBLIC "-//W3C//DTD SVG 1.1//EN" "http://www.w3.org/Graphics/SVG/1.1/DTD/svg11.dtd">
<svg version="1.1" id="Layer_1" xmlns="http://www.w3.org/2000/svg" xmlns:xlink="http://www.w3.org/1999/xlink" x="0px" y="0px"
	 width="100px" height="50px" viewBox="0 0 100 50" enable-background="new 0 0 100 50" xml:space="preserve">
<g>
	<path fill="#FFFFFF" d="M25,8.688C15.991,8.688,8.688,15.991,8.688,25c0,9.01,7.303,16.312,16.312,16.312S41.311,34.01,41.311,25
		C41.311,15.991,34.008,8.688,25,8.688z M24.999,38.541c-7.478,0-13.54-6.062-13.54-13.541c0-7.478,6.062-13.54,13.54-13.54
		c7.479,0,13.541,6.062,13.541,13.54C38.54,32.479,32.478,38.541,24.999,38.541z"/>
	<circle fill="#FFFFFF" cx="25" cy="25" r="8.234"/>
</g>
<path fill="#FFFFFF" d="M75,8.688c-9.01,0-16.312,7.303-16.312,16.312c0,9.01,7.304,16.312,16.312,16.312
	c9.008,0,16.311-7.303,16.311-16.312C91.311,15.991,84.008,8.688,75,8.688z M74.999,28.109c-1.717,0-3.108-1.393-3.108-3.109
	c0-1.716,1.392-3.108,3.108-3.108s3.109,1.392,3.109,3.108C78.108,26.717,76.716,28.109,74.999,28.109z"/>
</svg>
